<mxfile host="app.diagrams.net" modified="2023-10-08T11:39:54.080Z" agent="Mozilla/5.0 (Windows NT 10.0; Win64; x64) AppleWebKit/537.36 (KHTML, like Gecko) Chrome/117.0.0.0 Safari/537.36" etag="V9VJkMiTSgrnQqd6BBjt" version="21.8.1" type="device">
  <diagram name="Page-1" id="5f0bae14-7c28-e335-631c-24af17079c00">
    <mxGraphModel dx="1750" dy="957" grid="1" gridSize="10" guides="1" tooltips="1" connect="1" arrows="1" fold="1" page="0" pageScale="1" pageWidth="1100" pageHeight="850" background="none" math="0" shadow="0">
      <root>
        <mxCell id="0" />
        <mxCell id="1" parent="0" />
        <mxCell id="39150e848f15840c-5" value="GUI" style="shape=component;align=center;spacingLeft=36;rounded=0;shadow=0;comic=0;labelBackgroundColor=none;strokeWidth=1;fontFamily=Verdana;fontSize=12;html=1;" parent="1" vertex="1">
          <mxGeometry x="380" y="224" width="110" height="60" as="geometry" />
        </mxCell>
        <mxCell id="39150e848f15840c-7" value="Model" style="shape=component;align=center;spacingLeft=36;rounded=0;shadow=0;comic=0;labelBackgroundColor=none;strokeWidth=1;fontFamily=Verdana;fontSize=12;html=1;" parent="1" vertex="1">
          <mxGeometry x="420" y="565" width="290" height="60" as="geometry" />
        </mxCell>
        <mxCell id="39150e848f15840c-10" value="Presentter" style="shape=component;align=center;spacingLeft=36;rounded=0;shadow=0;comic=0;labelBackgroundColor=none;strokeWidth=1;fontFamily=Verdana;fontSize=12;html=1;" parent="1" vertex="1">
          <mxGeometry x="420" y="395" width="290" height="60" as="geometry" />
        </mxCell>
        <mxCell id="VJZ7u3wB5DbCdaGwAjz4-2" value="UX" style="shape=component;align=center;spacingLeft=36;rounded=0;shadow=0;comic=0;labelBackgroundColor=none;strokeWidth=1;fontFamily=Verdana;fontSize=12;html=1;" vertex="1" parent="1">
          <mxGeometry x="610" y="224" width="110" height="60" as="geometry" />
        </mxCell>
        <mxCell id="VJZ7u3wB5DbCdaGwAjz4-3" value="UsersRepository" style="shape=component;align=center;spacingLeft=36;rounded=0;shadow=0;comic=0;labelBackgroundColor=none;strokeWidth=1;fontFamily=Verdana;fontSize=12;html=1;" vertex="1" parent="1">
          <mxGeometry x="360" y="735" width="150" height="60" as="geometry" />
        </mxCell>
        <mxCell id="VJZ7u3wB5DbCdaGwAjz4-4" value="ChatRepository" style="shape=component;align=center;spacingLeft=36;rounded=0;shadow=0;comic=0;labelBackgroundColor=none;strokeWidth=1;fontFamily=Verdana;fontSize=12;html=1;" vertex="1" parent="1">
          <mxGeometry x="600" y="736" width="150" height="60" as="geometry" />
        </mxCell>
        <mxCell id="VJZ7u3wB5DbCdaGwAjz4-5" value="Данные о пользователях и их переписке" style="rounded=0;whiteSpace=wrap;html=1;dashed=1;dashPattern=12 12;" vertex="1" parent="1">
          <mxGeometry x="325" y="882" width="480" height="60" as="geometry" />
        </mxCell>
        <mxCell id="VJZ7u3wB5DbCdaGwAjz4-8" value="" style="ellipse;whiteSpace=wrap;html=1;align=center;aspect=fixed;fillColor=none;strokeColor=none;resizable=0;perimeter=centerPerimeter;rotatable=0;allowArrows=0;points=[];outlineConnect=1;" vertex="1" parent="1">
          <mxGeometry x="570" y="330" width="10" height="10" as="geometry" />
        </mxCell>
        <mxCell id="VJZ7u3wB5DbCdaGwAjz4-11" value="" style="rounded=0;orthogonalLoop=1;jettySize=auto;html=1;endArrow=none;endFill=0;entryX=0.75;entryY=1;entryDx=0;entryDy=0;" edge="1" parent="1" source="VJZ7u3wB5DbCdaGwAjz4-10" target="39150e848f15840c-5">
          <mxGeometry relative="1" as="geometry">
            <mxPoint x="450" y="280" as="targetPoint" />
          </mxGeometry>
        </mxCell>
        <mxCell id="VJZ7u3wB5DbCdaGwAjz4-12" value="" style="rounded=0;orthogonalLoop=1;jettySize=auto;html=1;entryX=0.159;entryY=0;entryDx=0;entryDy=0;entryPerimeter=0;endArrow=none;endFill=0;exitX=1;exitY=0.5;exitDx=0;exitDy=0;exitPerimeter=0;" edge="1" parent="1" source="VJZ7u3wB5DbCdaGwAjz4-10">
          <mxGeometry relative="1" as="geometry">
            <mxPoint x="460.69111111111124" y="360" as="sourcePoint" />
            <mxPoint x="463.1099999999999" y="395" as="targetPoint" />
          </mxGeometry>
        </mxCell>
        <mxCell id="VJZ7u3wB5DbCdaGwAjz4-10" value="" style="shape=providedRequiredInterface;html=1;verticalLabelPosition=bottom;sketch=0;direction=south;" vertex="1" parent="1">
          <mxGeometry x="453" y="340" width="20" height="20" as="geometry" />
        </mxCell>
        <mxCell id="VJZ7u3wB5DbCdaGwAjz4-16" value="" style="rounded=0;orthogonalLoop=1;jettySize=auto;html=1;endArrow=none;endFill=0;entryX=0.75;entryY=1;entryDx=0;entryDy=0;" edge="1" parent="1" source="VJZ7u3wB5DbCdaGwAjz4-18">
          <mxGeometry relative="1" as="geometry">
            <mxPoint x="659" y="285" as="targetPoint" />
          </mxGeometry>
        </mxCell>
        <mxCell id="VJZ7u3wB5DbCdaGwAjz4-17" value="" style="rounded=0;orthogonalLoop=1;jettySize=auto;html=1;entryX=0.159;entryY=0;entryDx=0;entryDy=0;entryPerimeter=0;endArrow=none;endFill=0;exitX=1;exitY=0.5;exitDx=0;exitDy=0;exitPerimeter=0;" edge="1" parent="1" source="VJZ7u3wB5DbCdaGwAjz4-18">
          <mxGeometry relative="1" as="geometry">
            <mxPoint x="656.6911111111112" y="361" as="sourcePoint" />
            <mxPoint x="659.1099999999999" y="396" as="targetPoint" />
          </mxGeometry>
        </mxCell>
        <mxCell id="VJZ7u3wB5DbCdaGwAjz4-18" value="" style="shape=providedRequiredInterface;html=1;verticalLabelPosition=bottom;sketch=0;direction=south;" vertex="1" parent="1">
          <mxGeometry x="649" y="341" width="20" height="20" as="geometry" />
        </mxCell>
        <mxCell id="VJZ7u3wB5DbCdaGwAjz4-19" value="" style="rounded=0;orthogonalLoop=1;jettySize=auto;html=1;endArrow=none;endFill=0;entryX=0.75;entryY=1;entryDx=0;entryDy=0;" edge="1" parent="1" source="VJZ7u3wB5DbCdaGwAjz4-21">
          <mxGeometry relative="1" as="geometry">
            <mxPoint x="573" y="455" as="targetPoint" />
          </mxGeometry>
        </mxCell>
        <mxCell id="VJZ7u3wB5DbCdaGwAjz4-20" value="" style="rounded=0;orthogonalLoop=1;jettySize=auto;html=1;entryX=0.159;entryY=0;entryDx=0;entryDy=0;entryPerimeter=0;endArrow=none;endFill=0;exitX=1;exitY=0.5;exitDx=0;exitDy=0;exitPerimeter=0;" edge="1" parent="1" source="VJZ7u3wB5DbCdaGwAjz4-21">
          <mxGeometry relative="1" as="geometry">
            <mxPoint x="570.6911111111112" y="531" as="sourcePoint" />
            <mxPoint x="573.1099999999999" y="566" as="targetPoint" />
          </mxGeometry>
        </mxCell>
        <mxCell id="VJZ7u3wB5DbCdaGwAjz4-21" value="" style="shape=providedRequiredInterface;html=1;verticalLabelPosition=bottom;sketch=0;direction=north;" vertex="1" parent="1">
          <mxGeometry x="563" y="511" width="20" height="20" as="geometry" />
        </mxCell>
        <mxCell id="VJZ7u3wB5DbCdaGwAjz4-22" value="" style="rounded=0;orthogonalLoop=1;jettySize=auto;html=1;endArrow=none;endFill=0;entryX=0.75;entryY=1;entryDx=0;entryDy=0;" edge="1" parent="1" source="VJZ7u3wB5DbCdaGwAjz4-24">
          <mxGeometry relative="1" as="geometry">
            <mxPoint x="659" y="625" as="targetPoint" />
          </mxGeometry>
        </mxCell>
        <mxCell id="VJZ7u3wB5DbCdaGwAjz4-23" value="" style="rounded=0;orthogonalLoop=1;jettySize=auto;html=1;entryX=0.159;entryY=0;entryDx=0;entryDy=0;entryPerimeter=0;endArrow=none;endFill=0;exitX=1;exitY=0.5;exitDx=0;exitDy=0;exitPerimeter=0;" edge="1" parent="1" source="VJZ7u3wB5DbCdaGwAjz4-24">
          <mxGeometry relative="1" as="geometry">
            <mxPoint x="656.6911111111112" y="701" as="sourcePoint" />
            <mxPoint x="659.1099999999999" y="736" as="targetPoint" />
          </mxGeometry>
        </mxCell>
        <mxCell id="VJZ7u3wB5DbCdaGwAjz4-24" value="" style="shape=providedRequiredInterface;html=1;verticalLabelPosition=bottom;sketch=0;direction=north;" vertex="1" parent="1">
          <mxGeometry x="649" y="681" width="20" height="20" as="geometry" />
        </mxCell>
        <mxCell id="VJZ7u3wB5DbCdaGwAjz4-25" value="" style="rounded=0;orthogonalLoop=1;jettySize=auto;html=1;endArrow=none;endFill=0;entryX=0.75;entryY=1;entryDx=0;entryDy=0;" edge="1" parent="1" source="VJZ7u3wB5DbCdaGwAjz4-27">
          <mxGeometry relative="1" as="geometry">
            <mxPoint x="464" y="624" as="targetPoint" />
          </mxGeometry>
        </mxCell>
        <mxCell id="VJZ7u3wB5DbCdaGwAjz4-26" value="" style="rounded=0;orthogonalLoop=1;jettySize=auto;html=1;entryX=0.159;entryY=0;entryDx=0;entryDy=0;entryPerimeter=0;endArrow=none;endFill=0;exitX=1;exitY=0.5;exitDx=0;exitDy=0;exitPerimeter=0;" edge="1" parent="1" source="VJZ7u3wB5DbCdaGwAjz4-27">
          <mxGeometry relative="1" as="geometry">
            <mxPoint x="461.69111111111124" y="700" as="sourcePoint" />
            <mxPoint x="464.1099999999999" y="735" as="targetPoint" />
          </mxGeometry>
        </mxCell>
        <mxCell id="VJZ7u3wB5DbCdaGwAjz4-27" value="" style="shape=providedRequiredInterface;html=1;verticalLabelPosition=bottom;sketch=0;direction=north;" vertex="1" parent="1">
          <mxGeometry x="454" y="680" width="20" height="20" as="geometry" />
        </mxCell>
        <mxCell id="VJZ7u3wB5DbCdaGwAjz4-29" value="" style="rounded=0;orthogonalLoop=1;jettySize=auto;html=1;endArrow=halfCircle;endFill=0;endSize=6;strokeWidth=1;sketch=0;fontSize=12;curved=1;exitX=0.393;exitY=1.017;exitDx=0;exitDy=0;exitPerimeter=0;" edge="1" parent="1" source="VJZ7u3wB5DbCdaGwAjz4-4">
          <mxGeometry relative="1" as="geometry">
            <mxPoint x="575" y="775" as="sourcePoint" />
            <mxPoint x="659" y="860" as="targetPoint" />
          </mxGeometry>
        </mxCell>
        <mxCell id="VJZ7u3wB5DbCdaGwAjz4-30" value="" style="ellipse;whiteSpace=wrap;html=1;align=center;aspect=fixed;fillColor=none;strokeColor=none;resizable=0;perimeter=centerPerimeter;rotatable=0;allowArrows=0;points=[];outlineConnect=1;" vertex="1" parent="1">
          <mxGeometry x="550" y="770" width="10" height="10" as="geometry" />
        </mxCell>
        <mxCell id="VJZ7u3wB5DbCdaGwAjz4-31" value="" style="rounded=0;orthogonalLoop=1;jettySize=auto;html=1;endArrow=halfCircle;endFill=0;endSize=6;strokeWidth=1;sketch=0;fontSize=12;curved=1;exitX=0.393;exitY=1.017;exitDx=0;exitDy=0;exitPerimeter=0;" edge="1" parent="1">
          <mxGeometry relative="1" as="geometry">
            <mxPoint x="467" y="796" as="sourcePoint" />
            <mxPoint x="467" y="859" as="targetPoint" />
          </mxGeometry>
        </mxCell>
      </root>
    </mxGraphModel>
  </diagram>
</mxfile>
